<?xml version="1.0" encoding="utf-8"?>
<!-- Generator: Adobe Illustrator 22.0.0, SVG Export Plug-In . SVG Version: 6.00 Build 0)  -->
<svg version="1.1" id="Слой_1" xmlns="http://www.w3.org/2000/svg" xmlns:xlink="http://www.w3.org/1999/xlink" x="0px" y="0px"
	 viewBox="0 0 100 100" style="enable-background:new 0 0 100 100;" xml:space="preserve">
<style type="text/css">
	.st0{fill:url(#SVGID_1_);}
	.st1{fill:url(#SVGID_2_);}
	.st2{fill:url(#SVGID_3_);}
	.st3{fill:#E9F4FC;}
	.st4{fill:#223C50;}
	.st5{fill:url(#SVGID_4_);}
	.st6{fill:url(#SVGID_5_);}
	.st7{fill:url(#SVGID_6_);}
	.st8{fill:#C1D6E3;}
	.st9{fill:url(#SVGID_7_);}
	.st10{fill:url(#SVGID_8_);}
	.st11{fill:url(#SVGID_9_);}
	.st12{fill:url(#SVGID_10_);}
</style>
<g>
	
		<linearGradient id="SVGID_1_" gradientUnits="userSpaceOnUse" x1="33.0341" y1="43.6048" x2="68.5724" y2="53.5927" gradientTransform="matrix(1 0 0 -1 0 102)">
		<stop  offset="0" style="stop-color:#DFF5FB"/>
		<stop  offset="0.2502" style="stop-color:#D3EEF6"/>
		<stop  offset="1" style="stop-color:#AED8E6"/>
	</linearGradient>
	<path class="st0" d="M78.3,28.7H63.7c-1.4,0-2.6-1.2-2.6-2.6l0,0c0-2.1-1.7-3.9-3.9-3.9H43.7c-2.1,0-3.9,1.7-3.9,3.9l0,0
		c0,1.4-1.2,2.6-2.6,2.6H22.7c-3.5,0-6.3,2.8-6.3,6.3v37.5c0,3.5,2.8,6.3,6.3,6.3h55.5c3.5,0,6.3-2.8,6.3-6.3V35
		C84.5,31.5,81.7,28.7,78.3,28.7z"/>
	
		<linearGradient id="SVGID_2_" gradientUnits="userSpaceOnUse" x1="103.7273" y1="69.1085" x2="39.6191" y2="44.0227" gradientTransform="matrix(1 0 0 -1 0 102)">
		<stop  offset="0" style="stop-color:#1570A3"/>
		<stop  offset="1" style="stop-color:#B9D7E4"/>
	</linearGradient>
	<rect x="16.5" y="39.6" class="st1" width="68.1" height="28.2"/>
	<g>
		
			<linearGradient id="SVGID_3_" gradientUnits="userSpaceOnUse" x1="93.3844" y1="25.089" x2="30.2053" y2="55.9818" gradientTransform="matrix(1 0 0 -1 0 102)">
			<stop  offset="0" style="stop-color:#9FDBE9;stop-opacity:0"/>
			<stop  offset="1" style="stop-color:#000000;stop-opacity:0.5"/>
		</linearGradient>
		<path class="st2" d="M62.5,39l-26,28.4l14.1,11.4h27.6c3.5,0,6.3-2.8,6.3-6.3V61L62.5,39z"/>
		<circle class="st3" cx="50.4" cy="54.1" r="19.3"/>
		<circle class="st4" cx="50.4" cy="54.1" r="15.4"/>
		
			<linearGradient id="SVGID_4_" gradientUnits="userSpaceOnUse" x1="94.092" y1="26.5359" x2="30.9128" y2="57.4287" gradientTransform="matrix(1 0 0 -1 0 102)">
			<stop  offset="0" style="stop-color:#F28B6C"/>
			<stop  offset="1" style="stop-color:#C7586B"/>
		</linearGradient>
		<circle class="st5" cx="50.4" cy="54.1" r="10"/>
	</g>
	
		<linearGradient id="SVGID_5_" gradientUnits="userSpaceOnUse" x1="49.547" y1="53.0298" x2="46.123" y2="66.726" gradientTransform="matrix(1 0 0 -1 0 102)">
		<stop  offset="0" style="stop-color:#F28B6C"/>
		<stop  offset="0.5763" style="stop-color:#D96E6B"/>
		<stop  offset="1" style="stop-color:#C7586B"/>
	</linearGradient>
	<path class="st6" d="M50.4,44.1c5.4,0,9.7,4.2,9.7,8.3s-4.3,7.4-9.7,7.4s-9.7-3.3-9.7-7.4S45,44.1,50.4,44.1z"/>
	
		<linearGradient id="SVGID_6_" gradientUnits="userSpaceOnUse" x1="82.1293" y1="68.9348" x2="68.7735" y2="65.5668" gradientTransform="matrix(1 0 0 -1 0 102)">
		<stop  offset="0" style="stop-color:#1570A3"/>
		<stop  offset="1" style="stop-color:#B9D7E4"/>
	</linearGradient>
	<rect x="70.6" y="32.6" class="st7" width="9.3" height="4.4"/>
	<g>
		<rect x="22.4" y="24.7" class="st8" width="10" height="4.1"/>
		
			<linearGradient id="SVGID_7_" gradientUnits="userSpaceOnUse" x1="31.1049" y1="75.25" x2="32.3244" y2="75.25" gradientTransform="matrix(1 0 0 -1 0 102)">
			<stop  offset="0" style="stop-color:#DFF5FB"/>
			<stop  offset="0.2502" style="stop-color:#D3EEF6"/>
			<stop  offset="1" style="stop-color:#AED8E6"/>
		</linearGradient>
		<rect x="31.1" y="24.7" class="st9" width="1.2" height="4.1"/>
		
			<linearGradient id="SVGID_8_" gradientUnits="userSpaceOnUse" x1="28.2208" y1="75.25" x2="29.4403" y2="75.25" gradientTransform="matrix(1 0 0 -1 0 102)">
			<stop  offset="0" style="stop-color:#DFF5FB"/>
			<stop  offset="0.2502" style="stop-color:#D3EEF6"/>
			<stop  offset="1" style="stop-color:#AED8E6"/>
		</linearGradient>
		<rect x="28.2" y="24.7" class="st10" width="1.2" height="4.1"/>
		
			<linearGradient id="SVGID_9_" gradientUnits="userSpaceOnUse" x1="25.3367" y1="75.25" x2="26.5562" y2="75.25" gradientTransform="matrix(1 0 0 -1 0 102)">
			<stop  offset="0" style="stop-color:#DFF5FB"/>
			<stop  offset="0.2502" style="stop-color:#D3EEF6"/>
			<stop  offset="1" style="stop-color:#AED8E6"/>
		</linearGradient>
		<rect x="25.3" y="24.7" class="st11" width="1.2" height="4.1"/>
		
			<linearGradient id="SVGID_10_" gradientUnits="userSpaceOnUse" x1="22.4526" y1="75.25" x2="23.6721" y2="75.25" gradientTransform="matrix(1 0 0 -1 0 102)">
			<stop  offset="0" style="stop-color:#DFF5FB"/>
			<stop  offset="0.2502" style="stop-color:#D3EEF6"/>
			<stop  offset="1" style="stop-color:#AED8E6"/>
		</linearGradient>
		<rect x="22.5" y="24.7" class="st12" width="1.2" height="4.1"/>
	</g>
</g>
</svg>
